<svg xmlns="http://www.w3.org/2000/svg" viewBox="0 0 733 547" role="img" aria-label="Movie Nite">
<rect width="733" height="547" fill="#262626"/>
<g fill="#EEEEE2" stroke="#EEEEE2" stroke-width="8" stroke-linejoin="round">
<path d="M35 383V33H122L242.5 248 363 33H450V383H365V170L267 330H218L120 170V383Z"/>
<rect x="595" y="33" width="85" height="350"/>
</g>
<path d="M345.2 29H459.2L702 383H590Z" fill="#4A4C43" stroke="#4A4C43" stroke-width="8" stroke-linejoin="miter" stroke-miterlimit="10"/>
<g fill="#262626"><rect x="406.1" y="45.0" width="46" height="46" rx="11" transform="rotate(-34.6 429.1 68.0)"/><rect x="444.7" y="101.0" width="46" height="46" rx="11" transform="rotate(-34.6 467.7 124.0)"/><rect x="483.2" y="157.0" width="46" height="46" rx="11" transform="rotate(-34.6 506.2 180.0)"/><rect x="521.8" y="213.0" width="46" height="46" rx="11" transform="rotate(-34.6 544.8 236.0)"/><rect x="560.3" y="269.0" width="46" height="46" rx="11" transform="rotate(-34.6 583.3 292.0)"/><rect x="598.9" y="325.0" width="46" height="46" rx="11" transform="rotate(-34.6 621.9 348.0)"/></g>
<path d="M62.08 507.28L44.56 507.28L44.56 426.62L60 426.62L90.19 476.74L119.92 426.62L135.24 426.62L135.47 507.28L117.96 507.28L117.84 458.89L94.11 498.75L85.70 498.75L62.08 459.92L62.08 507.28M182.83 508.20Q172.92 508.20 165.26 504.05Q157.59 499.90 153.16 492.70Q148.72 485.50 148.72 476.28Q148.72 466.95 153.16 459.75Q157.59 452.55 165.26 448.46Q172.92 444.37 182.83 444.37Q192.62 444.37 200.34 448.46Q208.06 452.55 212.44 459.69Q216.82 466.84 216.82 476.28Q216.82 485.50 212.44 492.70Q208.06 499.90 200.34 504.05Q192.62 508.20 182.83 508.20M182.83 493.45Q187.32 493.45 190.89 491.38Q194.46 489.30 196.54 485.44Q198.61 481.58 198.61 476.28Q198.61 470.87 196.54 467.07Q194.46 463.26 190.89 461.19Q187.32 459.12 182.83 459.12Q178.33 459.12 174.76 461.19Q171.19 463.26 169.06 467.07Q166.93 470.87 166.93 476.28Q166.93 481.58 169.06 485.44Q171.19 489.30 174.76 491.38Q178.33 493.45 182.83 493.45M264.17 507.28L245.62 507.28L219.58 445.29L238.13 445.29L255.30 487.46L273.04 445.29L290.33 445.29L264.17 507.28M315.68 507.28L297.70 507.28L297.70 445.29L315.68 445.29L315.68 507.28M306.69 436.65Q301.73 436.65 298.62 433.77Q295.51 430.89 295.51 426.62Q295.51 422.36 298.62 419.48Q301.73 416.60 306.69 416.60Q311.64 416.60 314.75 419.31Q317.86 422.02 317.86 426.28Q317.86 430.77 314.81 433.71Q311.76 436.65 306.69 436.65M363.15 508.20Q352.55 508.20 344.54 504.05Q336.53 499.90 332.15 492.70Q327.77 485.50 327.77 476.28Q327.77 466.95 332.09 459.75Q336.41 452.55 343.90 448.46Q351.39 444.37 360.84 444.37Q369.94 444.37 377.26 448.23Q384.58 452.09 388.84 459.29Q393.10 466.49 393.10 476.51Q393.10 477.55 392.99 478.88Q392.87 480.20 392.76 481.35L345.86 481.35Q346.44 483.77 347.71 485.85Q349.90 489.76 353.99 491.78Q358.08 493.80 363.61 493.80Q368.56 493.80 372.31 492.30Q376.05 490.80 379.16 487.81L388.72 498.18Q384.46 503.01 378.01 505.61Q371.56 508.20 363.15 508.20M345.63 470.87L376.17 470.87Q375.70 467.99 374.44 465.57Q372.48 462 369.02 459.98Q365.57 457.96 360.96 457.96Q356.35 457.96 352.83 459.98Q349.32 462 347.36 465.57Q346.09 467.99 345.63 470.87M457.40 507.28L438.96 507.28L438.96 426.62L454.40 426.62L494.50 475.59L494.50 426.62L512.93 426.62L512.93 507.28L497.61 507.28L457.40 458.31L457.40 507.28M548.76 507.28L530.79 507.28L530.79 445.29L548.76 445.29L548.76 507.28M539.78 436.65Q534.82 436.65 531.71 433.77Q528.60 430.89 528.60 426.62Q528.60 422.36 531.71 419.48Q534.82 416.60 539.78 416.60Q544.73 416.60 547.84 419.31Q550.95 422.02 550.95 426.28Q550.95 430.77 547.90 433.71Q544.85 436.65 539.78 436.65M590.82 508.20Q579.87 508.20 573.77 502.61Q567.66 497.02 567.66 485.96L567.66 459.12L558.10 459.12L558.10 445.29L567.66 445.29L567.66 431.58L585.64 431.58L585.64 445.29L601.07 445.29L601.07 459.12L585.64 459.12L585.64 485.73Q585.64 489.65 587.71 491.78Q589.78 493.91 593.35 493.91Q597.62 493.91 600.61 491.61L605.45 504.28Q602.69 506.24 598.83 507.22Q594.97 508.20 590.82 508.20M646.36 508.20Q635.76 508.20 627.75 504.05Q619.74 499.90 615.36 492.70Q610.98 485.50 610.98 476.28Q610.98 466.95 615.30 459.75Q619.62 452.55 627.11 448.46Q634.60 444.37 644.05 444.37Q653.15 444.37 660.47 448.23Q667.79 452.09 672.05 459.29Q676.31 466.49 676.31 476.51Q676.31 477.55 676.20 478.88Q676.08 480.20 675.97 481.35L629.07 481.35Q629.65 483.77 630.92 485.85Q633.11 489.76 637.20 491.78Q641.29 493.80 646.82 493.80Q651.77 493.80 655.52 492.30Q659.26 490.80 662.37 487.81L671.93 498.18Q667.67 503.01 661.22 505.61Q654.77 508.20 646.36 508.20M628.84 470.87L659.38 470.87Q658.91 467.99 657.65 465.57Q655.69 462 652.23 459.98Q648.78 457.96 644.17 457.96Q639.56 457.96 636.04 459.98Q632.53 462 630.57 465.57Q629.30 467.99 628.84 470.87" fill="#EEEEE2"/>
</svg>
